<?xml version="1.0" encoding="UTF-8" standalone="no"?>
<!DOCTYPE svg PUBLIC "-//W3C//DTD SVG 1.1//EN"
 "http://www.w3.org/Graphics/SVG/1.1/DTD/svg11.dtd">
<!-- Generated by graphviz version 2.40.1 (20161225.0304)
 -->
<!-- Title: G Pages: 1 -->
<svg width="204pt" height="234pt"
 viewBox="0.00 0.00 203.50 234.00" xmlns="http://www.w3.org/2000/svg" xmlns:xlink="http://www.w3.org/1999/xlink">
<g id="graph0" class="graph" transform="scale(1 1) rotate(0) translate(4 230)">
<title>G</title>
<polygon fill="#ffffff" stroke="transparent" points="-4,4 -4,-230 199.5,-230 199.5,4 -4,4"/>
<!-- A0 -->
<g id="node1" class="node">
<title>A0</title>
<polygon fill="none" stroke="#000000" points="0,-194 0,-226 92,-226 92,-194 0,-194"/>
<text text-anchor="start" x="21.8345" y="-207" font-family="Helvetica,sans-Serif" font-size="10.00" fill="#000000">A:HotDrink</text>
<polygon fill="none" stroke="#000000" points="0,-114 0,-194 92,-194 92,-114 0,-114"/>
<text text-anchor="start" x="20.1705" y="-175" font-family="Helvetica,sans-Serif" font-size="10.00" fill="#000000">Drink():bool</text>
<text text-anchor="start" x="14.056" y="-163" font-family="Helvetica,sans-Serif" font-size="10.00" fill="#000000">AddMilk():byte</text>
<text text-anchor="start" x="9.602" y="-151" font-family="Helvetica,sans-Serif" font-size="10.00" fill="#000000">AddSugar():byte</text>
<text text-anchor="start" x="26.2785" y="-139" font-family="Helvetica,sans-Serif" font-size="10.00" fill="#000000">milk:byte</text>
<text text-anchor="start" x="22.659" y="-127" font-family="Helvetica,sans-Serif" font-size="10.00" fill="#000000">sugar:byte</text>
</g>
<!-- A2 -->
<g id="node3" class="node">
<title>A2</title>
<polygon fill="none" stroke="#000000" points="1,-32 1,-64 92,-64 92,-32 1,-32"/>
<text text-anchor="start" x="17.3255" y="-45" font-family="Helvetica,sans-Serif" font-size="10.00" fill="#000000">CupOfCoffee</text>
<polygon fill="none" stroke="#000000" points="1,0 1,-32 92,-32 92,0 1,0"/>
<text text-anchor="start" x="10.6565" y="-13" font-family="Helvetica,sans-Serif" font-size="10.00" fill="#000000">beanType:string</text>
</g>
<!-- A0&#45;&gt;A2 -->
<g id="edge1" class="edge">
<title>A0&#45;&gt;A2</title>
<path fill="none" stroke="#000000" stroke-dasharray="5,2" d="M46,-103.4972C46,-89.853 46,-76.0784 46,-64.3113"/>
<polygon fill="#000000" stroke="#000000" points="46,-113.8701 41.5001,-103.8701 46,-108.8701 46.0001,-103.8701 46.0001,-103.8701 46.0001,-103.8701 46,-108.8701 50.5001,-103.8702 46,-113.8701 46,-113.8701"/>
</g>
<!-- A3 -->
<g id="node4" class="node">
<title>A3</title>
<polygon fill="none" stroke="#000000" points="110,-32 110,-64 195,-64 195,-32 110,-32"/>
<text text-anchor="start" x="129.439" y="-45" font-family="Helvetica,sans-Serif" font-size="10.00" fill="#000000">CupOfTea</text>
<polygon fill="none" stroke="#000000" points="110,0 110,-32 195,-32 195,0 110,0"/>
<text text-anchor="start" x="119.7165" y="-13" font-family="Helvetica,sans-Serif" font-size="10.00" fill="#000000">leafType:string</text>
</g>
<!-- A0&#45;&gt;A3 -->
<g id="edge3" class="edge">
<title>A0&#45;&gt;A3</title>
<path fill="none" stroke="#000000" stroke-dasharray="5,2" d="M95.2338,-105.9032C106.3121,-91.4805 117.611,-76.7706 127.1812,-64.3113"/>
<polygon fill="#000000" stroke="#000000" points="89.1143,-113.8701 91.6371,-103.1984 92.1601,-109.9049 95.2058,-105.9396 95.2058,-105.9396 95.2058,-105.9396 92.1601,-109.9049 98.7746,-108.6808 89.1143,-113.8701 89.1143,-113.8701"/>
</g>
<!-- A1 -->
<g id="node2" class="node">
<title>A1</title>
<polygon fill="none" stroke="#000000" points="111,-188 111,-220 196,-220 196,-188 111,-188"/>
<text text-anchor="start" x="140.163" y="-201" font-family="Helvetica,sans-Serif" font-size="10.00" fill="#000000">I:ICup</text>
<polygon fill="none" stroke="#000000" points="111,-120 111,-188 196,-188 196,-120 111,-120"/>
<text text-anchor="start" x="139.064" y="-169" font-family="Helvetica,sans-Serif" font-size="10.00" fill="#000000">Refill()</text>
<text text-anchor="start" x="137.3925" y="-157" font-family="Helvetica,sans-Serif" font-size="10.00" fill="#000000">Wash()</text>
<text text-anchor="start" x="129.055" y="-145" font-family="Helvetica,sans-Serif" font-size="10.00" fill="#000000">color:string</text>
<text text-anchor="start" x="120.991" y="-133" font-family="Helvetica,sans-Serif" font-size="10.00" fill="#000000">volume:double</text>
</g>
<!-- A1&#45;&gt;A2 -->
<g id="edge2" class="edge">
<title>A1&#45;&gt;A2</title>
<path fill="none" stroke="#000000" d="M107.5967,-111.4425C95.0881,-95.3098 81.9749,-78.3976 71.0783,-64.344"/>
<polygon fill="none" stroke="#000000" points="105.1743,-114.0303 114.0679,-119.7885 110.7063,-109.741 105.1743,-114.0303"/>
</g>
<!-- A1&#45;&gt;A3 -->
<g id="edge4" class="edge">
<title>A1&#45;&gt;A3</title>
<path fill="none" stroke="#000000" d="M152.5628,-109.6634C152.4498,-94.0724 152.3325,-77.8818 152.2344,-64.344"/>
<polygon fill="none" stroke="#000000" points="149.0637,-109.8141 152.6361,-119.7885 156.0635,-109.7633 149.0637,-109.8141"/>
</g>
</g>
</svg>
