<?xml version="1.0" encoding="UTF-8" standalone="no"?>
<!DOCTYPE svg PUBLIC "-//W3C//DTD SVG 1.1//EN"
 "http://www.w3.org/Graphics/SVG/1.1/DTD/svg11.dtd">
<!-- Generated by graphviz version 2.40.1 (20161225.0304)
 -->
<!-- Title: G Pages: 1 -->
<svg width="118pt" height="230pt"
 viewBox="0.00 0.00 118.00 230.00" xmlns="http://www.w3.org/2000/svg" xmlns:xlink="http://www.w3.org/1999/xlink">
<g id="graph0" class="graph" transform="scale(1 1) rotate(0) translate(4 226)">
<title>G</title>
<polygon fill="#ffffff" stroke="transparent" points="-4,4 -4,-226 114,-226 114,4 -4,4"/>
<!-- A0 -->
<g id="node1" class="node">
<title>A0</title>
<polygon fill="none" stroke="#000000" points="1,-190 1,-222 110,-222 110,-190 1,-190"/>
<text text-anchor="start" x="33.4175" y="-203" font-family="Helvetica,sans-Serif" font-size="10.00" fill="#000000">+MyClass</text>
<polygon fill="none" stroke="#000000" points="1,-158 1,-190 110,-190 110,-158 1,-158"/>
<text text-anchor="start" x="20.502" y="-171" font-family="Helvetica,sans-Serif" font-size="10.00" fill="#000000">&#45;myString:string</text>
<polygon fill="none" stroke="#000000" points="1,-114 1,-158 110,-158 110,-114 1,-114"/>
<text text-anchor="start" x="10.6345" y="-139" font-family="Helvetica,sans-Serif" font-size="10.00" fill="#000000">+GetString():string:v</text>
<text text-anchor="start" x="14.248" y="-127" font-family="Helvetica,sans-Serif" font-size="10.00" fill="#000000">+MyString:string:w</text>
</g>
<!-- A1 -->
<g id="node2" class="node">
<title>A1</title>
<polygon fill="none" stroke="#000000" points="0,-32 0,-64 110,-64 110,-32 0,-32"/>
<text text-anchor="start" x="15.6955" y="-45" font-family="Helvetica,sans-Serif" font-size="10.00" fill="#000000">+MyDerivedClass</text>
<polygon fill="none" stroke="#000000" points="0,0 0,-32 110,-32 110,0 0,0"/>
<text text-anchor="start" x="9.855" y="-13" font-family="Helvetica,sans-Serif" font-size="10.00" fill="#000000">+GetString():string:o</text>
</g>
<!-- A0&#45;&gt;A1 -->
<g id="edge1" class="edge">
<title>A0&#45;&gt;A1</title>
<path fill="none" stroke="#000000" d="M55,-103.4563C55,-89.7573 55,-75.8708 55,-64.0283"/>
<polygon fill="#000000" stroke="#000000" points="55,-113.8584 50.5001,-103.8584 55,-108.8584 55.0001,-103.8584 55.0001,-103.8584 55.0001,-103.8584 55,-108.8584 59.5001,-103.8585 55,-113.8584 55,-113.8584"/>
</g>
</g>
</svg>
