<?xml version="1.0" encoding="UTF-8" standalone="no"?>
<!DOCTYPE svg PUBLIC "-//W3C//DTD SVG 1.1//EN"
 "http://www.w3.org/Graphics/SVG/1.1/DTD/svg11.dtd">
<!-- Generated by graphviz version 2.40.1 (20161225.0304)
 -->
<!-- Title: G Pages: 1 -->
<svg width="305pt" height="278pt"
 viewBox="0.00 0.00 304.50 278.00" xmlns="http://www.w3.org/2000/svg" xmlns:xlink="http://www.w3.org/1999/xlink">
<g id="graph0" class="graph" transform="scale(1 1) rotate(0) translate(4 274)">
<title>G</title>
<polygon fill="#ffffff" stroke="transparent" points="-4,4 -4,-274 300.5,-274 300.5,4 -4,4"/>
<!-- A0 -->
<g id="node1" class="node">
<title>A0</title>
<polygon fill="none" stroke="#000000" points="0,-238 0,-270 116,-270 116,-238 0,-238"/>
<text text-anchor="start" x="43.968" y="-251" font-family="Helvetica,sans-Serif" font-size="10.00" fill="#000000">+A:Art</text>
<polygon fill="none" stroke="#000000" points="0,-206 0,-238 116,-238 116,-206 0,-206"/>
<text text-anchor="start" x="11.6095" y="-219" font-family="Helvetica,sans-Serif" font-size="10.00" fill="#000000">&#45;underDrawing:string</text>
<polygon fill="none" stroke="#000000" points="0,-150 0,-206 116,-206 116,-150 0,-150"/>
<text text-anchor="start" x="9.5245" y="-187" font-family="Helvetica,sans-Serif" font-size="10.00" fill="#000000">+UnderDrawing:string</text>
<text text-anchor="start" x="18.4075" y="-175" font-family="Helvetica,sans-Serif" font-size="10.00" fill="#000000">+CreateShape():v</text>
<text text-anchor="start" x="34.8" y="-163" font-family="Helvetica,sans-Serif" font-size="10.00" fill="#000000">+Blend():a</text>
</g>
<!-- A3 -->
<g id="node4" class="node">
<title>A3</title>
<polygon fill="none" stroke="#000000" points="51,-68 51,-100 150,-100 150,-68 51,-68"/>
<text text-anchor="start" x="91.472" y="-81" font-family="Helvetica,sans-Serif" font-size="10.00" fill="#000000">+Oil</text>
<polygon fill="none" stroke="#000000" points="51,0 51,-68 150,-68 150,0 51,0"/>
<text text-anchor="start" x="72.021" y="-49" font-family="Helvetica,sans-Serif" font-size="10.00" fill="#000000">+OnPalette()</text>
<text text-anchor="start" x="70.639" y="-37" font-family="Helvetica,sans-Serif" font-size="10.00" fill="#000000">+MyCanvas()</text>
<text text-anchor="start" x="60.628" y="-25" font-family="Helvetica,sans-Serif" font-size="10.00" fill="#000000">+CreateShape():o</text>
<text text-anchor="start" x="77.3" y="-13" font-family="Helvetica,sans-Serif" font-size="10.00" fill="#000000">+Blend():o</text>
</g>
<!-- A0&#45;&gt;A3 -->
<g id="edge1" class="edge">
<title>A0&#45;&gt;A3</title>
<path fill="none" stroke="#000000" stroke-dasharray="5,2" d="M76.312,-140.2401C79.8516,-126.7558 83.4948,-112.8768 86.8304,-100.1697"/>
<polygon fill="#000000" stroke="#000000" points="73.7587,-149.9667 71.9453,-139.1518 75.0283,-145.1305 76.2978,-140.2944 76.2978,-140.2944 76.2978,-140.2944 75.0283,-145.1305 80.6503,-141.437 73.7587,-149.9667 73.7587,-149.9667"/>
</g>
<!-- A4 -->
<g id="node5" class="node">
<title>A4</title>
<polygon fill="none" stroke="#000000" points="168,-68 168,-100 267,-100 267,-68 168,-68"/>
<text text-anchor="start" x="190.415" y="-81" font-family="Helvetica,sans-Serif" font-size="10.00" fill="#000000">+Watercolor</text>
<polygon fill="none" stroke="#000000" points="168,0 168,-68 267,-68 267,0 168,0"/>
<text text-anchor="start" x="189.021" y="-49" font-family="Helvetica,sans-Serif" font-size="10.00" fill="#000000">+OnPalette()</text>
<text text-anchor="start" x="187.639" y="-37" font-family="Helvetica,sans-Serif" font-size="10.00" fill="#000000">+MyCanvas()</text>
<text text-anchor="start" x="177.628" y="-25" font-family="Helvetica,sans-Serif" font-size="10.00" fill="#000000">+CreateShape():o</text>
<text text-anchor="start" x="194.3" y="-13" font-family="Helvetica,sans-Serif" font-size="10.00" fill="#000000">+Blend():o</text>
</g>
<!-- A0&#45;&gt;A4 -->
<g id="edge4" class="edge">
<title>A0&#45;&gt;A4</title>
<path fill="none" stroke="#000000" stroke-dasharray="5,2" d="M123.441,-144.1475C138.108,-129.3882 153.4344,-113.9653 167.3369,-99.9754"/>
<polygon fill="#000000" stroke="#000000" points="116.3029,-151.3304 120.1598,-141.0652 119.8273,-147.7838 123.3518,-144.2372 123.3518,-144.2372 123.3518,-144.2372 119.8273,-147.7838 126.5437,-147.4092 116.3029,-151.3304 116.3029,-151.3304"/>
</g>
<!-- A1 -->
<g id="node2" class="node">
<title>A1</title>
<polygon fill="none" stroke="#000000" points="135,-210 135,-242 206,-242 206,-210 135,-210"/>
<text text-anchor="start" x="155.638" y="-223" font-family="Helvetica,sans-Serif" font-size="10.00" fill="#000000">+I:IMix</text>
<polygon fill="none" stroke="#000000" points="135,-178 135,-210 206,-210 206,-178 135,-178"/>
<text text-anchor="start" x="144.9405" y="-191" font-family="Helvetica,sans-Serif" font-size="10.00" fill="#000000">OnPalette()</text>
</g>
<!-- A1&#45;&gt;A3 -->
<g id="edge2" class="edge">
<title>A1&#45;&gt;A3</title>
<path fill="none" stroke="#000000" d="M151.8012,-168.4028C142.6906,-147.5784 131.5887,-122.2027 122.0029,-100.2922"/>
<polygon fill="none" stroke="#000000" points="148.6197,-169.8629 155.8345,-177.6216 155.0328,-167.0571 148.6197,-169.8629"/>
</g>
<!-- A1&#45;&gt;A4 -->
<g id="edge5" class="edge">
<title>A1&#45;&gt;A4</title>
<path fill="none" stroke="#000000" d="M182.3848,-167.8388C188.4706,-147.1215 195.8484,-122.0053 202.2267,-100.2922"/>
<polygon fill="none" stroke="#000000" points="178.9715,-167.0405 179.5112,-177.6216 185.6878,-169.0135 178.9715,-167.0405"/>
</g>
<!-- A2 -->
<g id="node3" class="node">
<title>A2</title>
<polygon fill="none" stroke="#000000" points="224,-210 224,-242 297,-242 297,-210 224,-210"/>
<text text-anchor="start" x="236.464" y="-223" font-family="Helvetica,sans-Serif" font-size="10.00" fill="#000000">+I:ICanvas</text>
<polygon fill="none" stroke="#000000" points="224,-178 224,-210 297,-210 297,-178 224,-178"/>
<text text-anchor="start" x="233.5585" y="-191" font-family="Helvetica,sans-Serif" font-size="10.00" fill="#000000">MyCanvas()</text>
</g>
<!-- A2&#45;&gt;A3 -->
<g id="edge3" class="edge">
<title>A2&#45;&gt;A3</title>
<path fill="none" stroke="#000000" d="M231.7795,-169.8894C226.4478,-163.0485 220.7369,-156.1671 215,-150 208.9856,-143.5346 177.9702,-116.6178 149.6647,-92.338"/>
<polygon fill="none" stroke="#000000" points="229.0016,-172.0187 237.8431,-177.8563 234.5718,-167.7792 229.0016,-172.0187"/>
</g>
<!-- A2&#45;&gt;A4 -->
<g id="edge6" class="edge">
<title>A2&#45;&gt;A4</title>
<path fill="none" stroke="#000000" d="M248.6692,-167.8388C243.1014,-147.1215 236.3514,-122.0053 230.516,-100.2922"/>
<polygon fill="none" stroke="#000000" points="245.3228,-168.8727 251.2983,-177.6216 252.0829,-167.0559 245.3228,-168.8727"/>
</g>
</g>
</svg>
