<?xml version="1.0" encoding="UTF-8" standalone="no"?>
<!DOCTYPE svg PUBLIC "-//W3C//DTD SVG 1.1//EN"
 "http://www.w3.org/Graphics/SVG/1.1/DTD/svg11.dtd">
<!-- Generated by graphviz version 2.40.1 (20161225.0304)
 -->
<!-- Title: G Pages: 1 -->
<svg width="305pt" height="298pt"
 viewBox="0.00 0.00 304.50 298.00" xmlns="http://www.w3.org/2000/svg" xmlns:xlink="http://www.w3.org/1999/xlink">
<g id="graph0" class="graph" transform="scale(1 1) rotate(0) translate(4 294)">
<title>G</title>
<polygon fill="#ffffff" stroke="transparent" points="-4,4 -4,-294 300.5,-294 300.5,4 -4,4"/>
<!-- A0 -->
<g id="node1" class="node">
<title>A0</title>
<polygon fill="none" stroke="#000000" points="0,-258 0,-290 116,-290 116,-258 0,-258"/>
<text text-anchor="start" x="43.968" y="-271" font-family="Helvetica,sans-Serif" font-size="10.00" fill="#000000">+A:Art</text>
<polygon fill="none" stroke="#000000" points="0,-226 0,-258 116,-258 116,-226 0,-226"/>
<text text-anchor="start" x="11.6095" y="-239" font-family="Helvetica,sans-Serif" font-size="10.00" fill="#000000">&#45;underDrawing:string</text>
<polygon fill="none" stroke="#000000" points="0,-170 0,-226 116,-226 116,-170 0,-170"/>
<text text-anchor="start" x="9.5245" y="-207" font-family="Helvetica,sans-Serif" font-size="10.00" fill="#000000">+UnderDrawing:string</text>
<text text-anchor="start" x="18.4075" y="-195" font-family="Helvetica,sans-Serif" font-size="10.00" fill="#000000">+CreateShape():v</text>
<text text-anchor="start" x="34.8" y="-183" font-family="Helvetica,sans-Serif" font-size="10.00" fill="#000000">+Blend():a</text>
</g>
<!-- A3 -->
<g id="node4" class="node">
<title>A3</title>
<polygon fill="none" stroke="#000000" points="51,-88 51,-120 150,-120 150,-88 51,-88"/>
<text text-anchor="start" x="91.472" y="-101" font-family="Helvetica,sans-Serif" font-size="10.00" fill="#000000">+Oil</text>
<polygon fill="none" stroke="#000000" points="51,-68 51,-88 150,-88 150,-68 51,-68"/>
<polygon fill="none" stroke="#000000" points="51,0 51,-68 150,-68 150,0 51,0"/>
<text text-anchor="start" x="72.021" y="-49" font-family="Helvetica,sans-Serif" font-size="10.00" fill="#000000">+OnPalette()</text>
<text text-anchor="start" x="70.639" y="-37" font-family="Helvetica,sans-Serif" font-size="10.00" fill="#000000">+MyCanvas()</text>
<text text-anchor="start" x="60.628" y="-25" font-family="Helvetica,sans-Serif" font-size="10.00" fill="#000000">+CreateShape():o</text>
<text text-anchor="start" x="77.3" y="-13" font-family="Helvetica,sans-Serif" font-size="10.00" fill="#000000">+Blend():o</text>
</g>
<!-- A0&#45;&gt;A3 -->
<g id="edge1" class="edge">
<title>A0&#45;&gt;A3</title>
<path fill="none" stroke="#000000" stroke-dasharray="5,2" d="M75.3734,-159.6789C78.6113,-146.5735 81.9677,-132.9879 85.1222,-120.2198"/>
<polygon fill="#000000" stroke="#000000" points="72.9259,-169.5857 70.9558,-158.7982 74.1252,-164.7316 75.3244,-159.8776 75.3244,-159.8776 75.3244,-159.8776 74.1252,-164.7316 79.6931,-160.9569 72.9259,-169.5857 72.9259,-169.5857"/>
</g>
<!-- A4 -->
<g id="node5" class="node">
<title>A4</title>
<polygon fill="none" stroke="#000000" points="168,-88 168,-120 267,-120 267,-88 168,-88"/>
<text text-anchor="start" x="190.415" y="-101" font-family="Helvetica,sans-Serif" font-size="10.00" fill="#000000">+Watercolor</text>
<polygon fill="none" stroke="#000000" points="168,-68 168,-88 267,-88 267,-68 168,-68"/>
<polygon fill="none" stroke="#000000" points="168,0 168,-68 267,-68 267,0 168,0"/>
<text text-anchor="start" x="189.021" y="-49" font-family="Helvetica,sans-Serif" font-size="10.00" fill="#000000">+OnPalette()</text>
<text text-anchor="start" x="187.639" y="-37" font-family="Helvetica,sans-Serif" font-size="10.00" fill="#000000">+MyCanvas()</text>
<text text-anchor="start" x="177.628" y="-25" font-family="Helvetica,sans-Serif" font-size="10.00" fill="#000000">+CreateShape():o</text>
<text text-anchor="start" x="194.3" y="-13" font-family="Helvetica,sans-Serif" font-size="10.00" fill="#000000">+Blend():o</text>
</g>
<!-- A0&#45;&gt;A4 -->
<g id="edge4" class="edge">
<title>A0&#45;&gt;A4</title>
<path fill="none" stroke="#000000" stroke-dasharray="5,2" d="M121.444,-162.1668C136.6907,-145.8653 152.7594,-128.6849 167.2791,-113.1607"/>
<polygon fill="#000000" stroke="#000000" points="114.5051,-169.5857 118.0495,-159.2084 117.9206,-165.934 121.336,-162.2823 121.336,-162.2823 121.336,-162.2823 117.9206,-165.934 124.6226,-165.3562 114.5051,-169.5857 114.5051,-169.5857"/>
</g>
<!-- A1 -->
<g id="node2" class="node">
<title>A1</title>
<polygon fill="none" stroke="#000000" points="135,-230 135,-262 206,-262 206,-230 135,-230"/>
<text text-anchor="start" x="155.638" y="-243" font-family="Helvetica,sans-Serif" font-size="10.00" fill="#000000">+I:IMix</text>
<polygon fill="none" stroke="#000000" points="135,-198 135,-230 206,-230 206,-198 135,-198"/>
<text text-anchor="start" x="144.9405" y="-211" font-family="Helvetica,sans-Serif" font-size="10.00" fill="#000000">OnPalette()</text>
</g>
<!-- A1&#45;&gt;A3 -->
<g id="edge2" class="edge">
<title>A1&#45;&gt;A3</title>
<path fill="none" stroke="#000000" d="M152.8103,-188.2535C144.3658,-167.7455 134.0356,-142.658 124.7583,-120.1272"/>
<polygon fill="none" stroke="#000000" points="149.6248,-189.71 156.6688,-197.6242 156.0976,-187.0447 149.6248,-189.71"/>
</g>
<!-- A1&#45;&gt;A4 -->
<g id="edge5" class="edge">
<title>A1&#45;&gt;A4</title>
<path fill="none" stroke="#000000" d="M181.6187,-187.9748C187.2743,-167.5185 194.1757,-142.556 200.3766,-120.1272"/>
<polygon fill="none" stroke="#000000" points="178.2423,-187.053 178.951,-197.6242 184.9892,-188.9184 178.2423,-187.053"/>
</g>
<!-- A2 -->
<g id="node3" class="node">
<title>A2</title>
<polygon fill="none" stroke="#000000" points="224,-230 224,-262 297,-262 297,-230 224,-230"/>
<text text-anchor="start" x="236.464" y="-243" font-family="Helvetica,sans-Serif" font-size="10.00" fill="#000000">+I:ICanvas</text>
<polygon fill="none" stroke="#000000" points="224,-198 224,-230 297,-230 297,-198 224,-198"/>
<text text-anchor="start" x="233.5585" y="-211" font-family="Helvetica,sans-Serif" font-size="10.00" fill="#000000">MyCanvas()</text>
</g>
<!-- A2&#45;&gt;A3 -->
<g id="edge3" class="edge">
<title>A2&#45;&gt;A3</title>
<path fill="none" stroke="#000000" d="M231.7115,-189.9522C226.3872,-183.1045 220.6963,-176.2045 215,-170 192.4348,-145.4216 183.1543,-143.0186 159,-120 155.933,-117.0772 152.8037,-114.0466 149.6657,-110.9702"/>
<polygon fill="none" stroke="#000000" points="228.933,-192.0806 237.7719,-197.9221 234.505,-187.8435 228.933,-192.0806"/>
</g>
<!-- A2&#45;&gt;A4 -->
<g id="edge6" class="edge">
<title>A2&#45;&gt;A4</title>
<path fill="none" stroke="#000000" d="M249.2995,-187.6956C244.1385,-167.2917 237.856,-142.4541 232.2086,-120.1272"/>
<polygon fill="none" stroke="#000000" points="245.9654,-188.7878 251.8108,-197.6242 252.7517,-187.0712 245.9654,-188.7878"/>
</g>
</g>
</svg>
